<svg width="48" height="48" viewBox="0 0 48 48" fill="none" xmlns="http://www.w3.org/2000/svg">
<path opacity="0.3" fill-rule="evenodd" clip-rule="evenodd" d="M4.06066 22.4246C3.47487 23.0104 3.47487 23.9602 4.06066 24.546L10.4246 30.9099C11.0104 31.4957 11.9602 31.4957 12.5459 30.9099L18.9099 24.546C19.4957 23.9602 19.4957 23.0104 18.9099 22.4246L12.5459 16.0607C11.9602 15.4749 11.0104 15.4749 10.4246 16.0607L4.06066 22.4246ZM28.0607 22.4246C27.4749 23.0104 27.4749 23.9602 28.0607 24.546L34.4246 30.9099C35.0104 31.4957 35.9602 31.4957 36.5459 30.9099L42.9099 24.546C43.4957 23.9602 43.4957 23.0104 42.9099 22.4246L36.5459 16.0607C35.9602 15.4749 35.0104 15.4749 34.4246 16.0607L28.0607 22.4246Z" fill="white"/>
<path fill-rule="evenodd" clip-rule="evenodd" d="M16.0607 10.4246C15.4749 11.0104 15.4749 11.9602 16.0607 12.546L22.4246 18.9099C23.0104 19.4957 23.9602 19.4957 24.5459 18.9099L30.9099 12.546C31.4957 11.9602 31.4957 11.0104 30.9099 10.4246L24.5459 4.06068C23.9602 3.47489 23.0104 3.47489 22.4246 4.06068L16.0607 10.4246ZM16.0607 34.4246C15.4749 35.0104 15.4749 35.9602 16.0607 36.546L22.4246 42.9099C23.0104 43.4957 23.9602 43.4957 24.5459 42.9099L30.9099 36.546C31.4957 35.9602 31.4957 35.0104 30.9099 34.4246L24.5459 28.0607C23.9602 27.4749 23.0104 27.4749 22.4246 28.0607L16.0607 34.4246Z" fill="white"/>
</svg>
