<svg width="48" height="48" viewBox="0 0 48 48" fill="none" xmlns="http://www.w3.org/2000/svg">
<path opacity="0.3" fill-rule="evenodd" clip-rule="evenodd" d="M10.2667 4.07214C10.2667 4.07214 31.1014 15.7005 25.2667 30.0529C10.3529 27.6797 10.2667 4.07214 10.2667 4.07214Z" fill="white"/>
<path opacity="0.3" fill-rule="evenodd" clip-rule="evenodd" d="M37.4833 4.07214C37.4833 4.07214 16.6486 15.7005 22.4833 30.0529C37.3971 27.6797 37.4833 4.07214 37.4833 4.07214Z" fill="white"/>
<path opacity="0.3" fill-rule="evenodd" clip-rule="evenodd" d="M24 2C24 2 11.7708 22.4878 24 32C35.7292 22.4878 24 2 24 2Z" fill="white"/>
<path fill-rule="evenodd" clip-rule="evenodd" d="M10.3862 27.2873C10.1938 26.6457 10.6742 26 11.3441 26H36.656C37.3259 26 37.8063 26.6457 37.6138 27.2873L32.4276 44.5747C32.1738 45.4207 31.3952 46 30.512 46H17.4881C16.6049 46 15.8262 45.4207 15.5724 44.5747L10.3862 27.2873Z" fill="white"/>
</svg>
